<?xml version="1.0" encoding="utf-8"?>
<!-- Generator: Adobe Illustrator 27.8.0, SVG Export Plug-In . SVG Version: 6.00 Build 0)  -->
<svg version="1.1" id="Layer_1" xmlns="http://www.w3.org/2000/svg" xmlns:xlink="http://www.w3.org/1999/xlink" x="0px" y="0px"
	 viewBox="0 0 1329 639" style="enable-background:new 0 0 1329 639;" xml:space="preserve">
<style type="text/css">
	.st0{fill:none;stroke:#AD997B;stroke-width:6;stroke-linecap:round;stroke-linejoin:round;}
	.st1{fill:none;stroke:#395062;stroke-width:6;stroke-linecap:round;stroke-linejoin:round;}
	.st2{fill:#AD997B;}
	.st3{fill:#395062;}
</style>
<path class="st0" d="M211.7,274.8C183,248,176.2,248.4,168.8,210c-9.4-49.1-59.2-68.9-84.3-40.4s5.1,83,14.8,94.9
	c7.4,9.1,4.1,53.9,16.2,97.2"/>
<path class="st0" d="M220.6,409.9c-14-15.1-29.8-27.1-47.5-33c-63.9-21.4-64.2-7.6-91.4-39.6c-27.2-32-71.5-26.1-77.9,5
	c-6.3,31.1,38.2,58.6,50.1,63.3c12,4.7,36.1,61.8,80.1,85.9c44,24.1,65.8-23.3,82.5,9.8"/>
<path class="st0" d="M322.2,104.7c-5.9-4.4-13.9-7.4-24.6-8.4c-52.8-5-63.7,48.4-65.4,93.7c-1.7,45.3,6.7,61.6-19.1,85.7
	s16.2,56.7,12.6,80.6c-2.8,18.6-18.5,61.7,20.4,146.9"/>
<path class="st0" d="M322.2,503.2V349.9c-34.5,36-45.2,101.1-49,153.3H322.2z"/>
<path class="st1" d="M321.3,503.2H200.4c-2.1,0-4.2,0.4-6.1,1.3c-1.9,0.9-3.6,2.2-5,3.8c-1.3,1.6-2.3,3.5-2.8,5.6
	c-0.5,2.1-0.5,4.2-0.1,6.3l25.8,115.3"/>
<path class="st1" d="M1085.5,3H322.2v631.4h763.3V3z"/>
<path class="st1" d="M799.1,474.9h-42.8v66.8h42.8V474.9z"/>
<path class="st1" d="M866.2,446.8h-42.8v94.9h42.8V446.8z"/>
<path class="st1" d="M933.3,402.3h-42.8v139.3h42.8V402.3z"/>
<path class="st2" d="M1000.5,364h-42.8v177.7h42.8V364z"/>
<path class="st2" d="M1014.9,272.8c-0.3-0.3-0.7-0.5-1.1-0.6s-0.9-0.1-1.3-0.1l-28,4.5c-0.4,0.1-0.8,0.2-1.1,0.4
	c-0.3,0.2-0.6,0.5-0.9,0.8c-0.2,0.3-0.4,0.7-0.5,1.1c-0.1,0.4-0.1,0.8,0,1.2c0.1,0.4,0.2,0.8,0.4,1.1c0.2,0.3,0.5,0.6,0.8,0.9
	c0.3,0.2,0.7,0.4,1.1,0.5c0.4,0.1,0.8,0.1,1.2,0l18.3-2.9L949.1,343l-22.3-21.5c-0.3-0.3-0.6-0.5-1-0.6c-0.4-0.1-0.8-0.2-1.2-0.2
	c-0.4,0-0.8,0.1-1.2,0.3c-0.4,0.2-0.7,0.4-1,0.7l-73.2,85L828,390.8c-0.6-0.4-1.3-0.6-2-0.6s-1.4,0.3-1.9,0.8l-65.7,63
	c-0.5,0.6-0.9,1.3-0.9,2.1s0.3,1.5,0.8,2.1c0.5,0.6,1.3,0.9,2.1,0.9c0.8,0,1.5-0.3,2.1-0.8l63.9-61.3l21.5,16.1
	c0.6,0.5,1.4,0.7,2.1,0.6c0.8-0.1,1.5-0.4,1.9-1l72.9-84.7l22.3,21.5c0.3,0.3,0.6,0.5,1,0.6c0.4,0.1,0.8,0.2,1.2,0.2
	c0.4,0,0.8-0.1,1.2-0.3c0.4-0.2,0.7-0.4,1-0.7l58.3-67.7l-0.4,23.7c0,0.4,0.1,0.8,0.2,1.2c0.1,0.4,0.4,0.7,0.6,1
	c0.3,0.3,0.6,0.5,1,0.7s0.8,0.2,1.2,0.2c0.8,0,1.5-0.3,2.1-0.9s0.9-1.3,0.9-2.1l0.5-30.3c0-0.4-0.1-0.9-0.3-1.3
	C1015.5,273.4,1015.3,273.1,1014.9,272.8L1014.9,272.8z"/>
<path class="st1" d="M399.3,472.5h184"/>
<path class="st1" d="M399.3,500.5h135.4"/>
<path class="st1" d="M395.3,531.9h96"/>
<path class="st1" d="M604.4,472.5h79.4"/>
<path class="st2" d="M486.5,411.4l21.2,19.9V391L486.5,411.4z"/>
<path class="st2" d="M456,432.4l21.8-20.9L456,390.9V432.4z"/>
<path class="st2" d="M564.1,384h-49l24.8,23.3L564.1,384z"/>
<path class="st2" d="M482.2,415.5l-24.9,23.9h50.2L482.2,415.5z"/>
<path class="st2" d="M513.7,432.4l21.8-20.9l-21.8-20.5V432.4z"/>
<path class="st2" d="M395.3,388.1v47.1l24.8-23.8L395.3,388.1z"/>
<path class="st2" d="M424.4,415.5l-24.9,23.9h50.2L424.4,415.5z"/>
<path class="st2" d="M448.6,384h-49l24.8,23.3L448.6,384z"/>
<path class="st2" d="M565.4,431.3V391l-21.2,20.4L565.4,431.3z"/>
<path class="st2" d="M428.8,411.4l21.2,19.9V391L428.8,411.4z"/>
<path class="st2" d="M539.9,415.5L515,439.4h50.2L539.9,415.5z"/>
<path class="st2" d="M506.4,384h-49l24.8,23.3L506.4,384z"/>
<path class="st2" d="M623.1,384h-51.7v55.4h51.7V384z"/>
<path class="st2" d="M683.8,384h-54.7v55.4h54.7V384z"/>
<path class="st2" d="M565.2,439.4l0.2,0.1c0,0,0-0.1,0-0.1H565.2z"/>
<path class="st1" d="M972.7,180.5h-31v31h31V180.5z"/>
<path class="st1" d="M978.9,124.3H860.3V160h118.5V124.3z"/>
<path class="st1" d="M860.3,211.5h60.3"/>
<path class="st1" d="M860.3,196.9h60.3"/>
<path class="st1" d="M860.3,182.2h60.3"/>
<path class="st1" d="M763.1,295.3h164.7"/>
<path class="st1" d="M763.1,309.5h97.2"/>
<path class="st2" d="M594.2,210l113-57.3c9,17.8,13.7,37.4,13.7,57.3c0,69.5-57.2,126.7-126.7,126.7c-19,0-37.9-4.3-55-12.6
	c-17.2-8.3-32.2-20.3-44.1-35.2L594.2,210z"/>
<path class="st1" d="M691.3,113.2h104.6"/>
<path class="st1" d="M795.9,127.3h-55.8"/>
<path class="st1" d="M795.9,141.6h-37.1"/>
<path class="st1" d="M663.9,225.5H799"/>
<path class="st1" d="M799,236.6h-25.3"/>
<path class="st1" d="M517.3,101.6h-80.6"/>
<path class="st1" d="M436.8,113H453"/>
<path class="st0" d="M475,291.2l95.5-75.7l-121.9,1.4C448.9,243.9,458.2,270.1,475,291.2L475,291.2z"/>
<path class="st0" d="M462,160.6c-5.5,14.1-8.3,29-8.2,44.1c0,0.5,0,1.1,0,1.6l121.8-1.6L462,160.6z"/>
<path class="st0" d="M658.9,87.4l-60.1,105.7l109-54.1C697,117.3,679.9,99.4,658.9,87.4L658.9,87.4z"/>
<path class="st3" d="M644.8,90.3c-18.2-10.4-38.8-16-59.8-16.1h-2c-24.3,0.2-47.9,7.7-67.9,21.5c-20,13.8-35.4,33.2-44.3,55.8
	L584.3,196L644.8,90.3z"/>
<path class="st1" d="M471.4,237.1h-80.6"/>
<path class="st1" d="M390.8,248.5h29.1"/>
<path class="st1" d="M1001.2,583.1c-7,0.4-14,1.3-21,2.5c-13.6,2.4-36.7,6.3-39,9.8c-3.7,5.6,4.5,9.3,13.3,9"/>
<path class="st1" d="M965.9,613.4c-13.4,3.3-19.8,2.7-16.3-4.3c2.4-4.8,34.5-21.5,40.8-23.3s61.3-9.8,61.3-9.8l14.1,58.4h-79.6
	c-19.3,1.2-13.7-9.7-5.8-12.5s22.4-9.6,24.6-9.1c0,0-20.7,5.9-30,11.7c-6.6,2.6-14-1.9-14.7-4s5.4-7.8,15.4-13
	c7.5-3.7,15.2-6.9,23.2-9.6"/>
<path class="st3" d="M1292.6,418.3c0.4-12.8-2.8-25.5-9.3-36.6c-6.5-11.1-16-20-27.4-25.9l-37.8-20.3l-4.1,18.6
	c-2.2,9.7-8.1,18.2-16.5,23.5s-18.6,7.1-28.3,5l-4.9-1.1c-9.7-2.2-18.2-8.1-23.5-16.5c-5.3-8.4-7.1-18.6-5-28.3l6.3-28.3
	c-7.2-5-12.9-11.8-15.6-20.6c-0.2-0.6-0.3-1.2-0.5-1.8l-37.6-20.1l-0.1,291.7l102-20.9l-4.9-68.5c0-0.4,0-0.8,0.2-1.2
	c0.1-0.4,0.3-0.7,0.6-1c0.2-0.3,0.6-0.5,0.9-0.7c0.4-0.2,0.7-0.3,1.1-0.3c0.4,0,0.8,0,1.2,0.1c0.4,0.1,0.7,0.3,1,0.6
	c0.3,0.3,0.5,0.6,0.7,0.9c0.2,0.4,0.3,0.7,0.3,1.1l5.1,71.1c0.1,0.7-0.2,1.4-0.6,2c-0.4,0.6-1.1,1-1.8,1.1l-105.8,21.7v0.8
	l-57.9,10.5c11.4,2.2,24,58.7,24,58.7h205.4c4.8,0,9.5-0.9,13.9-2.8s8.4-4.5,11.7-7.9c3.3-3.4,6-7.4,7.7-11.8
	c1.8-4.4,2.6-9.1,2.6-13.9L1292.6,418.3z"/>
<path class="st1" d="M1226.9,293.1l-12.8,61c-2.2,9.7-8.1,18.2-16.5,23.5c-8.4,5.3-18.6,7.1-28.3,5l-4.9-1.1
	c-9.7-2.2-18.2-8.1-23.5-16.5c-5.3-8.4-7.2-18.6-5-28.3l6.3-28.3"/>
<path class="st1" d="M1255,244c0,0,32-62.3-30.7-95.6c-5.8-3.1-46.2-23.5-65.6,9.2c-13,21.8-22.4,47-28.3,67.1
	c0,0.1-11.8,37.7-3.9,63.3c7.9,25.6,41.2,34.5,61.9,30c20.7-4.5,25.6-8.8,34.5-19.3c8.8-10.5,32-54.5,32-54.5L1255,244z"/>
<path class="st3" d="M1130.4,224.6c5.9-20,15.3-45.3,28.3-67.1c0.6-1,1.2-2,1.8-2.9c-10.6-8.2-27.6,8.8-39.4,43.6
	c-6.1,18-22.7,27.1-22.7,27.1c12.7,11.1,24.2,6.3,31.7,0C1130.3,224.9,1130.4,224.6,1130.4,224.6z"/>
<path class="st1" d="M1160,213l-13.5,33.9l11.1,4.1"/>
<path class="st3" d="M1150.9,210.7c1.2-2.8,0.7-5.6-1.1-6.4c-1.8-0.8-4.2,0.9-5.4,3.6c-1.2,2.8-0.7,5.6,1.1,6.4
	C1147.3,215.1,1149.8,213.5,1150.9,210.7z"/>
<path class="st3" d="M1181.9,224c0.7-2.9-0.4-5.7-2.3-6.1c-1.9-0.4-4,1.6-4.6,4.6c-0.7,2.9,0.4,5.7,2.3,6.1
	C1179.2,229,1181.3,227,1181.9,224z"/>
<path class="st1" d="M1205.5,213c-0.9-2.8-2.5-5.2-4.7-7.1c-2.2-1.9-4.8-3.2-7.7-3.8"/>
<path class="st1" d="M1163.7,188.1c0,0-9.8-9-17.2-3.7"/>
<path class="st2" d="M1322,225.5l-33.9-17.2c4.2-25.2,1.6-64.2-45.7-86.2c-74-34.4-101,39.7-101,39.7l169.5,85.5
	c1.4,0.8,3,1.3,4.6,1.4c1.6,0.2,3.3,0,4.8-0.5c1.6-0.5,3-1.3,4.2-2.3c1.2-1.1,2.3-2.4,3-3.8c0.7-1.5,1.2-3,1.3-4.7
	c0.1-1.6-0.1-3.3-0.6-4.8c-0.5-1.5-1.4-3-2.4-4.2C1324.8,227.2,1323.5,226.2,1322,225.5L1322,225.5z"/>
<path class="st1" d="M1174.9,268.4c0,0-8.6,9.8-23.9,1.9"/>
<path class="st3" d="M1284.1,233.9l-71.5-36.1c-8.3,25.9-18.7,77.8,25.6,91.5c0,0,34.6,11.5,44.6,0.1c0,0-23.8-17.4-18.4-31.7
	c0,0,24.3,36,52.8,16.9C1317.2,274.5,1283.5,263.7,1284.1,233.9z"/>
<path class="st1" d="M3,634h1314"/>
</svg>
