<?xml version="1.0" standalone="no"?>
<!DOCTYPE svg PUBLIC "-//W3C//DTD SVG 20010904//EN"
 "http://www.w3.org/TR/2001/REC-SVG-20010904/DTD/svg10.dtd">
<svg version="1.0" xmlns="http://www.w3.org/2000/svg"
 width="2048.000000pt" height="2048.000000pt" viewBox="0 0 2048.000000 2048.000000"
 preserveAspectRatio="xMidYMid meet">
<metadata>
Created by potrace 1.14, written by Peter Selinger 2001-2017
</metadata>
<g transform="translate(0.000000,2048.000000) scale(0.100000,-0.100000)"
fill="#000000" stroke="none">
<path d="M1730 19825 c-560 -89 -990 -523 -1075 -1085 -13 -82 -15 -1228 -15
-8499 0 -9321 -6 -8504 66 -8720 130 -391 424 -685 815 -815 216 -72 -601 -66
8720 -66 9154 0 8479 -4 8684 55 400 115 743 458 860 860 59 204 55 -473 55
8684 0 9321 6 8504 -66 8720 -130 391 -424 685 -815 815 -216 72 603 66 -8730
65 -6993 -1 -8428 -3 -8499 -14z m14358 -2563 c107 -34 187 -105 235 -209 18
-40 22 -66 22 -158 0 -101 -3 -120 -38 -226 -71 -216 -210 -468 -364 -659 -87
-108 -295 -307 -411 -393 -275 -204 -566 -336 -887 -399 -109 -22 -123 -22
-1420 -28 l-1310 -5 -53 -28 c-65 -34 -133 -100 -163 -158 -12 -24 -101 -341
-198 -704 l-177 -660 841 -5 840 -5 67 -33 c158 -78 238 -240 209 -424 -35
-213 -185 -524 -373 -771 -285 -375 -746 -683 -1191 -798 -177 -46 -230 -51
-598 -56 l-357 -5 -16 -57 c-8 -31 -421 -1570 -916 -3421 -496 -1851 -918
-3408 -937 -3460 -299 -802 -1172 -1428 -1947 -1398 -99 4 -118 8 -177 36 -78
38 -140 100 -177 180 -24 51 -27 69 -27 167 l0 110 248 920 c137 506 608 2263
1048 3905 440 1642 802 2992 804 3000 4 13 -10 18 -65 28 -96 16 -155 46 -221
112 -77 76 -102 142 -102 270 -1 79 6 117 35 225 20 72 89 326 153 565 81 301
127 457 151 506 43 87 125 188 202 249 105 84 277 155 374 155 37 0 38 1 52
53 9 28 108 397 220 820 221 824 239 886 325 1077 361 799 1164 1459 2001
1644 253 56 166 54 2282 55 1876 1 1959 0 2016 -17z m-8145 -1581 c207 -54
383 -193 470 -371 69 -140 82 -198 82 -370 0 -155 -12 -224 -61 -362 -88 -245
-277 -492 -508 -665 -168 -126 -411 -232 -599 -263 -94 -15 -287 -12 -374 6
-298 61 -513 269 -579 559 -21 94 -23 268 -5 365 104 541 607 1025 1158 1115
118 19 312 13 416 -14z m-328 -2582 c122 -22 217 -92 272 -199 26 -52 28 -63
27 -175 l0 -120 -702 -2615 c-386 -1438 -716 -2659 -733 -2712 -67 -211 -220
-479 -387 -678 -392 -469 -1003 -779 -1532 -780 -98 0 -170 14 -229 45 -60 31
-127 102 -157 168 -26 56 -29 72 -29 167 l0 105 703 2620 c387 1441 717 2663
733 2715 35 108 127 306 195 419 158 260 412 521 689 706 126 85 368 203 507
249 230 75 503 111 643 85z"/>
</g>
</svg>
